<svg width="317" height="357" viewBox="0 0 317 357" fill="none" xmlns="http://www.w3.org/2000/svg">
<path d="M51.6242 110.071C75.528 137.9 79.8454 161.746 72.3777 181.282C110.086 150.232 98.61 114.419 77.6852 92.5355C59.0608 73.0575 37.7883 62.5966 31.3634 12.0288C17.4325 49.7941 21.7445 75.2848 51.6242 110.071Z" fill="white"/>
<path d="M139.818 98.4224C163.722 126.251 168.04 150.098 160.572 169.634C198.28 138.583 186.804 102.771 165.879 80.8871C147.255 61.4091 125.982 50.9481 119.558 0.380372C105.627 38.1457 109.939 63.6363 139.818 98.4224Z" fill="white"/>
<path d="M237.997 110.071C261.901 137.9 266.218 161.746 258.75 181.282C296.459 150.232 284.983 114.419 264.058 92.5355C245.433 73.0575 224.161 62.5966 217.736 12.0288C203.805 49.7941 208.117 75.2848 237.997 110.071Z" fill="white"/>
<path fill-rule="evenodd" clip-rule="evenodd" d="M317 238.79C296.754 216.88 246.944 173.06 209.669 173.06C188.068 173.06 172.725 179.677 156.844 186.527C138.47 194.452 119.373 202.688 89.0263 201.349C43.7644 199.352 14.1444 181.658 4.99217 173.06L4.99216 356.937L317 356.937V238.79ZM245.94 302.681C247.431 304.652 249.747 305.637 252.889 305.637C256.031 305.637 258.88 304.865 261.436 303.32C263.033 303.48 265.456 303.879 268.704 304.518C272.006 305.211 274.508 305.557 276.212 305.557C279.461 305.557 281.99 304.332 283.8 301.883C285.664 299.433 286.596 296.638 286.596 293.496C286.596 291.845 286.436 290.541 286.117 289.582C282.017 291.073 277.943 292.111 273.896 292.697H260.956C260.956 289.715 261.249 286.547 261.835 283.192C263.965 283.671 266.042 283.911 268.065 283.911C270.142 283.911 272.006 283.299 273.656 282.074C275.307 280.849 276.133 279.225 276.133 277.202C276.133 275.125 275.999 273.634 275.733 272.729C273.124 273.527 270.728 274.14 268.545 274.566C267.16 274.566 265.483 274.379 263.512 274.007C264.577 268.575 265.323 264.661 265.749 262.265C268.678 263.543 271.66 264.182 274.695 264.182C279.168 264.182 282.815 263.09 285.638 260.907C288.513 258.724 289.951 255.476 289.951 251.163C289.951 249.459 289.738 247.728 289.312 245.971C280.313 248.527 272.804 249.885 266.787 250.044C266.042 247.062 264.098 245.571 260.956 245.571C256.004 245.571 250.52 247.515 244.502 251.402L248.736 259.949C245.381 278.48 243.704 289.742 243.704 293.735C243.704 297.676 244.449 300.658 245.94 302.681ZM49.0495 245.651C56.0784 245.651 61.3501 246.477 64.8646 248.127C68.379 249.725 70.1363 252.307 70.1363 255.875C70.1363 259.39 69.0447 262.079 66.8614 263.942C64.7315 265.753 62.282 266.658 59.513 266.658C56.7441 266.658 54.2413 265.966 52.0049 264.581C49.8216 263.144 48.304 261.253 47.452 258.91C45.4818 258.91 43.5915 259.576 41.781 260.907C40.0238 262.185 38.9055 263.863 38.4263 265.939C48.9697 268.495 56.5311 271.477 61.1105 274.885C65.6899 278.293 67.9797 282.66 67.9797 287.985C67.9797 293.309 65.5568 297.569 60.7111 300.764C55.9187 303.959 49.4223 305.557 41.2219 305.557C33.0747 305.557 27.2972 304.439 23.8892 302.202C20.4813 299.966 18.7773 297.01 18.7773 293.336C18.7773 289.662 19.9221 286.281 22.2119 283.192C23.3301 285.588 25.4601 287.745 28.6018 289.662C31.7967 291.579 34.9385 292.537 38.0269 292.537C43.7246 292.537 47.3456 290.727 48.8898 287.106C40.0504 285.934 33.3144 283.485 28.6817 279.758C24.049 275.977 21.7326 271.424 21.7326 266.099C21.7326 262.531 22.6911 259.363 24.6081 256.594C26.5251 253.772 28.9745 251.615 31.9565 250.124C37.8139 247.142 43.5116 245.651 49.0495 245.651ZM72.0114 259.47C72.0114 255.156 73.1297 251.908 75.3661 249.725C77.6026 247.542 80.2651 246.45 83.3535 246.45C86.4952 246.45 90.7552 246.983 96.1334 248.048C101.512 249.113 105.559 249.672 108.274 249.725C112.8 248.873 117.114 247.835 121.214 246.61C121.64 247.994 121.853 249.725 121.853 251.802C121.853 256.115 120.601 259.363 118.099 261.546C115.649 263.729 112.508 264.821 108.674 264.821C107.715 264.821 106.437 264.768 104.84 264.661C101.911 280.05 100.447 288.65 100.447 290.461C100.447 295.626 101.245 299.486 102.843 302.042C99.6478 304.439 96.3197 305.637 92.8585 305.637C89.3973 305.637 86.9212 304.652 85.4303 302.681C83.9393 300.658 83.1938 297.676 83.1938 293.735C83.1938 289.742 84.738 279.145 87.8265 261.946C81.8093 262.744 76.7506 263.65 72.6504 264.661C72.2244 263.33 72.0114 261.6 72.0114 259.47ZM128.94 254.837C123.295 260.907 120.473 269.001 120.473 279.119C120.473 286.999 122.949 293.389 127.901 298.288C132.854 303.134 139.59 305.557 148.109 305.557C152.05 305.557 155.857 304.758 159.531 303.161C163.259 301.563 166.56 299.3 169.436 296.371C172.365 293.443 174.708 289.689 176.465 285.109C178.222 280.53 179.101 275.498 179.101 270.013C179.101 264.528 177.929 260.348 175.586 257.473C173.296 254.544 170.527 253.08 167.279 253.08C164.883 253.08 162.7 253.878 160.73 255.476C160.836 254.411 160.889 253.692 160.889 253.319C160.889 250.71 160.197 248.793 158.813 247.568C157.481 246.29 155.245 245.651 152.103 245.651C142.305 245.651 134.584 248.713 128.94 254.837ZM155.218 269.454C155.218 274.246 156.922 278.719 160.33 282.873C159.531 286.121 158.041 288.783 155.857 290.86C153.727 292.883 151.358 293.895 148.749 293.895C145.341 293.895 142.678 292.457 140.761 289.582C138.844 286.707 137.886 283.112 137.886 278.799C137.886 271.238 140.495 265.327 145.713 261.067C148.482 258.777 151.757 257.632 155.538 257.632C156.496 257.632 157.455 257.712 158.413 257.872C156.283 260.801 155.218 264.661 155.218 269.454ZM214.438 292.457L211.642 284.39C208.873 284.39 206.078 283.964 203.256 283.112C202.67 286.52 202.377 288.97 202.377 290.461C202.377 295.626 203.176 299.486 204.773 302.042C201.578 304.439 198.25 305.637 194.789 305.637C191.328 305.637 188.852 304.652 187.361 302.681C185.87 300.658 185.124 297.676 185.124 293.735C185.124 289.742 186.802 278.48 190.156 259.949L185.923 251.402C191.887 247.568 197.372 245.651 202.377 245.651C206.211 245.651 209.166 246.45 211.243 248.048C215.237 246.45 218.831 245.651 222.026 245.651C226.925 245.651 230.812 247.302 233.688 250.604C236.563 253.905 238.001 257.872 238.001 262.505C238.001 265.966 237.122 269.321 235.365 272.569C233.608 275.764 231.025 278.373 227.617 280.397C229.428 285.562 231.451 290.008 233.688 293.735C235.977 297.463 238.24 299.939 240.477 301.164C239.359 302.335 237.628 303.347 235.285 304.199C232.995 305.104 230.919 305.557 229.055 305.557C225.434 305.557 222.532 304.652 220.349 302.841C218.165 300.977 216.195 297.516 214.438 292.457ZM206.77 274.406C211.03 274.406 214.331 273.314 216.674 271.131C219.071 268.948 220.269 266.605 220.269 264.102C220.269 261.6 219.577 259.603 218.192 258.112C216.808 256.621 214.837 255.875 212.281 255.875C210.897 255.875 209.512 256.062 208.128 256.434C206.424 266.605 205.359 272.569 204.933 274.326C205.306 274.379 205.918 274.406 206.77 274.406Z" fill="white"/>
</svg>
